<svg id="svg" version="1.1" xmlns="http://www.w3.org/2000/svg" xmlns:xlink="http://www.w3.org/1999/xlink" width="400" height="400" viewBox="0, 0, 400,400"><g id="svgg"><path id="path0" d="M347.313 87.477 C 346.646 88.495,346.587 90.968,346.400 126.182 C 346.290 146.872,346.052 164.030,345.870 164.310 C 345.625 164.689,345.250 164.510,344.410 163.610 C 343.788 162.945,343.015 162.400,342.693 162.400 C 342.370 162.400,341.630 161.680,341.047 160.800 C 340.465 159.920,339.840 159.200,339.659 159.200 C 339.478 159.200,337.864 157.760,336.073 156.000 C 334.282 154.240,332.575 152.800,332.279 152.800 C 331.983 152.800,330.855 152.170,329.772 151.400 C 328.689 150.630,327.512 150.000,327.157 150.000 C 326.802 150.000,325.863 149.560,325.070 149.022 C 322.711 147.421,322.184 147.218,318.716 146.572 C 316.892 146.232,314.050 145.475,312.400 144.889 C 308.053 143.345,301.552 143.345,297.200 144.887 C 295.550 145.472,292.591 146.221,290.624 146.553 C 288.452 146.920,286.097 147.633,284.624 148.369 C 283.291 149.036,281.413 149.752,280.450 149.959 C 279.379 150.191,278.216 150.821,277.450 151.585 C 276.763 152.271,274.400 154.422,272.200 156.365 C 270.000 158.309,267.700 160.596,267.089 161.449 C 265.052 164.294,262.407 168.546,262.158 169.378 C 262.023 169.830,261.380 170.760,260.731 171.445 C 259.767 172.461,259.475 173.233,259.144 175.645 C 258.921 177.270,258.527 178.982,258.269 179.450 C 258.011 179.917,257.488 180.848,257.106 181.518 C 255.861 183.704,255.471 192.333,255.300 221.400 C 255.117 252.652,255.567 261.389,257.553 265.199 C 258.007 266.071,258.641 267.917,258.963 269.301 C 259.516 271.687,262.930 278.974,264.142 280.356 C 264.453 280.710,265.071 281.724,265.515 282.609 C 265.960 283.494,268.006 285.904,270.062 287.965 C 275.327 293.242,276.034 293.847,277.499 294.330 C 278.213 294.565,279.400 295.217,280.137 295.779 C 280.874 296.341,282.483 297.147,283.714 297.570 C 284.945 297.994,286.457 298.705,287.076 299.152 C 291.156 302.097,320.793 301.711,324.929 298.658 C 325.628 298.143,326.942 297.434,327.848 297.084 C 329.671 296.381,333.150 294.049,335.139 292.199 C 338.755 288.834,341.258 286.108,341.457 285.315 C 341.581 284.820,342.485 283.957,343.505 283.360 C 346.266 281.741,346.400 282.104,346.400 291.214 C 346.400 297.935,346.473 298.742,347.131 299.338 C 348.348 300.439,374.193 300.335,374.786 299.226 C 375.447 297.991,375.345 88.909,374.682 87.600 L 374.177 86.600 361.101 86.495 L 348.026 86.389 347.313 87.477 M75.893 145.840 C 75.761 145.973,72.868 146.298,69.464 146.564 C 63.792 147.007,63.161 147.135,61.902 148.095 C 61.051 148.744,59.555 149.321,57.965 149.613 C 56.554 149.872,54.998 150.157,54.507 150.248 C 54.016 150.338,53.026 150.925,52.307 151.552 C 51.588 152.179,50.247 153.074,49.327 153.540 C 48.407 154.007,47.540 154.574,47.400 154.800 C 47.260 155.026,46.483 155.553,45.673 155.972 C 44.863 156.390,43.390 157.577,42.400 158.611 C 41.410 159.644,39.835 161.264,38.900 162.209 C 37.965 163.155,37.200 164.190,37.200 164.509 C 37.200 164.829,36.671 165.756,36.025 166.569 C 35.378 167.382,34.449 169.252,33.960 170.724 C 33.471 172.196,32.727 173.867,32.306 174.439 C 31.885 175.010,31.468 176.180,31.380 177.039 C 31.292 177.897,30.930 181.121,30.575 184.202 C 29.501 193.539,30.463 206.740,32.500 210.600 C 33.080 211.700,33.673 213.090,33.818 213.689 C 34.302 215.693,42.142 223.797,45.200 225.454 C 46.190 225.991,47.552 226.781,48.228 227.209 C 48.903 227.638,50.847 228.337,52.547 228.762 C 54.248 229.187,55.855 229.705,56.120 229.914 C 57.123 230.707,60.734 231.550,64.200 231.800 C 69.556 232.187,76.188 233.154,77.683 233.766 C 78.613 234.147,82.232 234.384,90.000 234.574 C 101.135 234.846,105.721 235.438,108.800 237.001 C 109.350 237.280,110.808 237.716,112.040 237.970 C 113.612 238.294,114.617 238.782,115.405 239.605 C 116.023 240.251,117.389 241.064,118.441 241.413 C 120.272 242.022,122.000 244.197,122.000 245.896 C 122.000 246.139,122.495 246.927,123.100 247.646 C 124.644 249.481,124.788 256.910,123.310 258.483 C 122.821 259.004,122.190 260.444,121.908 261.683 C 121.156 264.994,115.468 270.673,111.972 271.601 C 110.997 271.860,109.210 272.641,108.000 273.336 L 105.800 274.600 91.200 274.728 C 73.639 274.883,71.248 274.725,69.556 273.301 C 68.711 272.591,67.448 272.118,65.467 271.770 C 62.250 271.205,61.170 270.796,59.322 269.444 C 58.619 268.930,57.337 268.396,56.474 268.258 C 55.610 268.120,54.656 267.708,54.352 267.342 C 54.048 266.976,52.720 266.159,51.400 265.526 C 48.703 264.233,45.553 262.321,42.639 260.207 C 39.573 257.983,37.188 258.282,35.465 261.104 C 34.885 262.055,29.414 268.497,27.062 271.000 C 25.821 272.320,24.805 273.570,24.803 273.778 C 24.801 273.986,24.332 274.645,23.759 275.243 C 21.528 277.572,24.460 282.112,30.072 285.016 C 31.101 285.549,32.058 286.171,32.199 286.398 C 32.339 286.625,33.207 287.193,34.127 287.660 C 35.047 288.126,36.383 289.016,37.095 289.637 C 37.807 290.258,39.152 290.972,40.084 291.223 C 41.016 291.474,42.276 292.098,42.885 292.610 C 43.494 293.122,45.029 293.750,46.296 294.006 C 47.563 294.261,49.261 294.919,50.068 295.467 C 51.063 296.143,53.018 296.759,56.130 297.378 C 58.884 297.925,61.185 298.619,61.876 299.112 C 65.150 301.443,109.503 301.552,113.424 299.239 C 114.140 298.817,116.137 298.170,117.862 297.803 C 122.265 296.864,123.624 296.407,125.000 295.402 C 125.660 294.919,127.238 294.114,128.507 293.613 C 129.776 293.112,130.905 292.554,131.016 292.374 C 131.127 292.194,132.050 291.631,133.068 291.124 C 135.381 289.968,142.331 283.148,143.845 280.546 C 144.468 279.476,145.356 278.036,145.819 277.346 C 146.282 276.657,146.989 275.037,147.389 273.746 C 147.789 272.456,148.473 270.891,148.908 270.268 C 150.138 268.510,150.492 263.501,150.327 250.200 L 150.178 238.200 148.722 235.200 C 147.921 233.550,146.888 231.390,146.426 230.400 C 144.574 226.429,139.126 220.170,135.815 218.210 C 129.492 214.467,125.401 212.749,121.410 212.162 C 119.205 211.838,116.179 211.110,114.688 210.546 C 111.353 209.285,111.807 209.329,96.200 208.778 C 85.118 208.387,83.105 208.219,81.200 207.524 C 79.812 207.018,76.894 206.541,73.294 206.230 C 68.028 205.776,67.503 205.657,66.494 204.695 C 65.892 204.121,64.500 203.268,63.400 202.800 C 58.807 200.845,57.098 197.768,57.047 191.358 C 57.013 187.145,57.068 186.834,58.101 185.343 C 58.700 184.478,59.481 182.918,59.836 181.876 C 60.594 179.653,64.553 175.997,67.077 175.190 C 67.915 174.923,69.071 174.265,69.646 173.729 C 70.794 172.659,73.950 172.023,78.200 172.007 C 79.912 172.000,80.990 171.759,81.961 171.168 C 84.221 169.790,91.668 169.549,93.011 170.810 C 93.882 171.629,94.567 171.777,98.701 172.046 C 105.922 172.516,107.550 172.780,108.318 173.604 C 109.224 174.577,110.912 175.200,112.639 175.200 C 114.225 175.200,116.386 176.017,117.852 177.169 C 118.404 177.604,119.806 178.236,120.965 178.573 C 122.125 178.910,123.572 179.578,124.181 180.057 C 124.790 180.535,126.997 181.808,129.086 182.885 L 132.883 184.842 134.989 182.921 C 136.147 181.864,137.313 180.523,137.580 179.940 C 137.846 179.356,138.517 178.456,139.070 177.940 C 139.623 177.423,140.343 176.487,140.669 175.859 C 140.996 175.232,143.228 172.497,145.631 169.782 C 150.671 164.088,150.856 163.534,148.125 162.325 C 147.093 161.869,145.536 160.979,144.665 160.348 C 143.793 159.717,142.914 159.200,142.712 159.200 C 142.510 159.200,141.592 158.692,140.672 158.071 C 139.752 157.449,137.972 156.531,136.716 156.030 C 135.459 155.530,134.231 154.878,133.985 154.582 C 133.740 154.287,132.338 153.653,130.870 153.174 C 129.401 152.695,127.300 151.807,126.200 151.201 C 124.849 150.456,123.322 150.014,121.496 149.838 C 118.531 149.552,117.631 149.242,115.735 147.853 C 114.628 147.043,113.826 146.893,109.335 146.657 C 106.511 146.509,103.030 146.214,101.600 146.002 C 98.792 145.585,76.289 145.444,75.893 145.840 M319.438 170.798 C 320.737 171.236,323.597 171.873,325.793 172.212 C 328.899 172.692,330.010 173.039,330.793 173.773 C 331.347 174.292,332.736 175.114,333.881 175.599 C 335.968 176.485,339.105 179.384,340.591 181.800 C 340.996 182.460,341.736 183.630,342.235 184.400 C 342.734 185.170,343.336 186.880,343.573 188.200 C 343.811 189.520,344.341 191.056,344.751 191.614 C 346.282 193.695,346.400 195.940,346.400 222.919 L 346.400 248.999 344.778 254.200 C 343.885 257.060,342.904 259.850,342.596 260.400 C 342.289 260.950,341.499 262.410,340.841 263.644 C 339.398 266.352,335.010 270.525,332.200 271.863 C 331.100 272.386,329.390 273.271,328.400 273.828 L 326.600 274.841 314.744 274.721 L 302.888 274.600 301.027 273.263 C 300.004 272.528,298.552 271.756,297.800 271.549 C 295.127 270.811,289.679 264.941,287.453 260.400 C 286.860 259.190,286.080 257.661,285.719 257.003 C 285.359 256.345,284.905 254.185,284.712 252.203 C 284.519 250.221,284.055 247.610,283.680 246.400 C 282.674 243.148,282.646 203.473,283.648 201.000 C 284.005 200.120,284.424 197.722,284.580 195.672 C 284.851 192.123,285.546 189.528,286.362 189.023 C 286.568 188.896,287.048 187.939,287.429 186.896 C 287.809 185.853,288.597 184.370,289.181 183.600 C 289.764 182.830,290.634 181.553,291.115 180.762 C 292.151 179.057,295.946 176.111,298.200 175.262 C 299.080 174.931,300.280 174.222,300.866 173.687 C 301.685 172.941,302.662 172.622,305.066 172.318 C 306.790 172.100,308.830 171.627,309.600 171.268 C 312.572 169.880,316.207 169.707,319.438 170.798 M185.200 269.200 C 184.281 270.119,183.928 297.571,184.814 299.226 C 185.440 300.396,214.282 300.436,215.338 299.269 C 216.479 298.008,216.327 270.924,215.171 269.454 L 214.342 268.400 200.171 268.400 C 186.533 268.400,185.970 268.430,185.200 269.200 " stroke="none" fill="#5bcbcb" fill-rule="evenodd"></path><path id="path1" d="M0.000 200.000 L 0.000 400.000 200.000 400.000 L 400.000 400.000 400.000 200.000 L 400.000 0.000 200.000 0.000 L 0.000 0.000 0.000 200.000 M374.682 87.600 C 375.345 88.909,375.447 297.991,374.786 299.226 C 374.193 300.335,348.348 300.439,347.131 299.338 C 346.473 298.742,346.400 297.935,346.400 291.214 C 346.400 282.104,346.266 281.741,343.505 283.360 C 342.485 283.957,341.581 284.820,341.457 285.315 C 341.258 286.108,338.755 288.834,335.139 292.199 C 333.150 294.049,329.671 296.381,327.848 297.084 C 326.942 297.434,325.628 298.143,324.929 298.658 C 320.793 301.711,291.156 302.097,287.076 299.152 C 286.457 298.705,284.945 297.994,283.714 297.570 C 282.483 297.147,280.874 296.341,280.137 295.779 C 279.400 295.217,278.213 294.565,277.499 294.330 C 276.034 293.847,275.327 293.242,270.062 287.965 C 268.006 285.904,265.960 283.494,265.515 282.609 C 265.071 281.724,264.453 280.710,264.142 280.356 C 262.930 278.974,259.516 271.687,258.963 269.301 C 258.641 267.917,258.007 266.071,257.553 265.199 C 255.567 261.389,255.117 252.652,255.300 221.400 C 255.471 192.333,255.861 183.704,257.106 181.518 C 257.488 180.848,258.011 179.917,258.269 179.450 C 258.527 178.982,258.921 177.270,259.144 175.645 C 259.475 173.233,259.767 172.461,260.731 171.445 C 261.380 170.760,262.023 169.830,262.158 169.378 C 262.407 168.546,265.052 164.294,267.089 161.449 C 267.700 160.596,270.000 158.309,272.200 156.365 C 274.400 154.422,276.763 152.271,277.450 151.585 C 278.216 150.821,279.379 150.191,280.450 149.959 C 281.413 149.752,283.291 149.036,284.624 148.369 C 286.097 147.633,288.452 146.920,290.624 146.553 C 292.591 146.221,295.550 145.472,297.200 144.887 C 301.552 143.345,308.053 143.345,312.400 144.889 C 314.050 145.475,316.892 146.232,318.716 146.572 C 322.184 147.218,322.711 147.421,325.070 149.022 C 325.863 149.560,326.802 150.000,327.157 150.000 C 327.512 150.000,328.689 150.630,329.772 151.400 C 330.855 152.170,331.983 152.800,332.279 152.800 C 332.575 152.800,334.282 154.240,336.073 156.000 C 337.864 157.760,339.478 159.200,339.659 159.200 C 339.840 159.200,340.465 159.920,341.047 160.800 C 341.630 161.680,342.370 162.400,342.693 162.400 C 343.015 162.400,343.788 162.945,344.410 163.610 C 345.250 164.510,345.625 164.689,345.870 164.310 C 346.052 164.030,346.290 146.872,346.400 126.182 C 346.587 90.968,346.646 88.495,347.313 87.477 L 348.026 86.389 361.101 86.495 L 374.177 86.600 374.682 87.600 M101.600 146.002 C 103.030 146.214,106.511 146.509,109.335 146.657 C 113.826 146.893,114.628 147.043,115.735 147.853 C 117.631 149.242,118.531 149.552,121.496 149.838 C 123.322 150.014,124.849 150.456,126.200 151.201 C 127.300 151.807,129.401 152.695,130.870 153.174 C 132.338 153.653,133.740 154.287,133.985 154.582 C 134.231 154.878,135.459 155.530,136.716 156.030 C 137.972 156.531,139.752 157.449,140.672 158.071 C 141.592 158.692,142.510 159.200,142.712 159.200 C 142.914 159.200,143.793 159.717,144.665 160.348 C 145.536 160.979,147.093 161.869,148.125 162.325 C 150.856 163.534,150.671 164.088,145.631 169.782 C 143.228 172.497,140.996 175.232,140.669 175.859 C 140.343 176.487,139.623 177.423,139.070 177.940 C 138.517 178.456,137.846 179.356,137.580 179.940 C 137.313 180.523,136.147 181.864,134.989 182.921 L 132.883 184.842 129.086 182.885 C 126.997 181.808,124.790 180.535,124.181 180.057 C 123.572 179.578,122.125 178.910,120.965 178.573 C 119.806 178.236,118.404 177.604,117.852 177.169 C 116.386 176.017,114.225 175.200,112.639 175.200 C 110.912 175.200,109.224 174.577,108.318 173.604 C 107.550 172.780,105.922 172.516,98.701 172.046 C 94.567 171.777,93.882 171.629,93.011 170.810 C 91.668 169.549,84.221 169.790,81.961 171.168 C 80.990 171.759,79.912 172.000,78.200 172.007 C 73.950 172.023,70.794 172.659,69.646 173.729 C 69.071 174.265,67.915 174.923,67.077 175.190 C 64.553 175.997,60.594 179.653,59.836 181.876 C 59.481 182.918,58.700 184.478,58.101 185.343 C 57.068 186.834,57.013 187.145,57.047 191.358 C 57.098 197.768,58.807 200.845,63.400 202.800 C 64.500 203.268,65.892 204.121,66.494 204.695 C 67.503 205.657,68.028 205.776,73.294 206.230 C 76.894 206.541,79.812 207.018,81.200 207.524 C 83.105 208.219,85.118 208.387,96.200 208.778 C 111.807 209.329,111.353 209.285,114.688 210.546 C 116.179 211.110,119.205 211.838,121.410 212.162 C 125.401 212.749,129.492 214.467,135.815 218.210 C 139.126 220.170,144.574 226.429,146.426 230.400 C 146.888 231.390,147.921 233.550,148.722 235.200 L 150.178 238.200 150.327 250.200 C 150.492 263.501,150.138 268.510,148.908 270.268 C 148.473 270.891,147.789 272.456,147.389 273.746 C 146.989 275.037,146.282 276.657,145.819 277.346 C 145.356 278.036,144.468 279.476,143.845 280.546 C 142.331 283.148,135.381 289.968,133.068 291.124 C 132.050 291.631,131.127 292.194,131.016 292.374 C 130.905 292.554,129.776 293.112,128.507 293.613 C 127.238 294.114,125.660 294.919,125.000 295.402 C 123.624 296.407,122.265 296.864,117.862 297.803 C 116.137 298.170,114.140 298.817,113.424 299.239 C 109.503 301.552,65.150 301.443,61.876 299.112 C 61.185 298.619,58.884 297.925,56.130 297.378 C 53.018 296.759,51.063 296.143,50.068 295.467 C 49.261 294.919,47.563 294.261,46.296 294.006 C 45.029 293.750,43.494 293.122,42.885 292.610 C 42.276 292.098,41.016 291.474,40.084 291.223 C 39.152 290.972,37.807 290.258,37.095 289.637 C 36.383 289.016,35.047 288.126,34.127 287.660 C 33.207 287.193,32.339 286.625,32.199 286.398 C 32.058 286.171,31.101 285.549,30.072 285.016 C 24.460 282.112,21.528 277.572,23.759 275.243 C 24.332 274.645,24.801 273.986,24.803 273.778 C 24.805 273.570,25.821 272.320,27.062 271.000 C 29.414 268.497,34.885 262.055,35.465 261.104 C 37.188 258.282,39.573 257.983,42.639 260.207 C 45.553 262.321,48.703 264.233,51.400 265.526 C 52.720 266.159,54.048 266.976,54.352 267.342 C 54.656 267.708,55.610 268.120,56.474 268.258 C 57.337 268.396,58.619 268.930,59.322 269.444 C 61.170 270.796,62.250 271.205,65.467 271.770 C 67.448 272.118,68.711 272.591,69.556 273.301 C 71.248 274.725,73.639 274.883,91.200 274.728 L 105.800 274.600 108.000 273.336 C 109.210 272.641,110.997 271.860,111.972 271.601 C 115.468 270.673,121.156 264.994,121.908 261.683 C 122.190 260.444,122.821 259.004,123.310 258.483 C 124.788 256.910,124.644 249.481,123.100 247.646 C 122.495 246.927,122.000 246.139,122.000 245.896 C 122.000 244.197,120.272 242.022,118.441 241.413 C 117.389 241.064,116.023 240.251,115.405 239.605 C 114.617 238.782,113.612 238.294,112.040 237.970 C 110.808 237.716,109.350 237.280,108.800 237.001 C 105.721 235.438,101.135 234.846,90.000 234.574 C 82.232 234.384,78.613 234.147,77.683 233.766 C 76.188 233.154,69.556 232.187,64.200 231.800 C 60.734 231.550,57.123 230.707,56.120 229.914 C 55.855 229.705,54.248 229.187,52.547 228.762 C 50.847 228.337,48.903 227.638,48.228 227.209 C 47.552 226.781,46.190 225.991,45.200 225.454 C 42.142 223.797,34.302 215.693,33.818 213.689 C 33.673 213.090,33.080 211.700,32.500 210.600 C 30.463 206.740,29.501 193.539,30.575 184.202 C 30.930 181.121,31.292 177.897,31.380 177.039 C 31.468 176.180,31.885 175.010,32.306 174.439 C 32.727 173.867,33.471 172.196,33.960 170.724 C 34.449 169.252,35.378 167.382,36.025 166.569 C 36.671 165.756,37.200 164.829,37.200 164.509 C 37.200 164.190,37.965 163.155,38.900 162.209 C 39.835 161.264,41.410 159.644,42.400 158.611 C 43.390 157.577,44.863 156.390,45.673 155.972 C 46.483 155.553,47.260 155.026,47.400 154.800 C 47.540 154.574,48.407 154.007,49.327 153.540 C 50.247 153.074,51.588 152.179,52.307 151.552 C 53.026 150.925,54.016 150.338,54.507 150.248 C 54.998 150.157,56.554 149.872,57.965 149.613 C 59.555 149.321,61.051 148.744,61.902 148.095 C 63.161 147.135,63.792 147.007,69.464 146.564 C 72.868 146.298,75.761 145.973,75.893 145.840 C 76.289 145.444,98.792 145.585,101.600 146.002 M312.400 170.364 C 311.630 170.501,310.370 170.908,309.600 171.268 C 308.830 171.627,306.790 172.100,305.066 172.318 C 302.662 172.622,301.685 172.941,300.866 173.687 C 300.280 174.222,299.080 174.931,298.200 175.262 C 295.946 176.111,292.151 179.057,291.115 180.762 C 290.634 181.553,289.764 182.830,289.181 183.600 C 288.597 184.370,287.809 185.853,287.429 186.896 C 287.048 187.939,286.568 188.896,286.362 189.023 C 285.546 189.528,284.851 192.123,284.580 195.672 C 284.424 197.722,284.005 200.120,283.648 201.000 C 282.646 203.473,282.674 243.148,283.680 246.400 C 284.055 247.610,284.519 250.221,284.712 252.203 C 284.905 254.185,285.359 256.345,285.719 257.003 C 286.080 257.661,286.860 259.190,287.453 260.400 C 289.679 264.941,295.127 270.811,297.800 271.549 C 298.552 271.756,300.004 272.528,301.027 273.263 L 302.888 274.600 314.744 274.721 L 326.600 274.841 328.400 273.828 C 329.390 273.271,331.100 272.386,332.200 271.863 C 335.010 270.525,339.398 266.352,340.841 263.644 C 341.499 262.410,342.289 260.950,342.596 260.400 C 342.904 259.850,343.885 257.060,344.778 254.200 L 346.400 248.999 346.400 222.919 C 346.400 195.940,346.282 193.695,344.751 191.614 C 344.341 191.056,343.811 189.520,343.573 188.200 C 343.336 186.880,342.734 185.170,342.235 184.400 C 341.736 183.630,340.996 182.460,340.591 181.800 C 339.105 179.384,335.968 176.485,333.881 175.599 C 332.736 175.114,331.347 174.292,330.793 173.773 C 330.010 173.039,328.899 172.692,325.793 172.212 C 323.597 171.873,320.737 171.236,319.438 170.798 C 317.094 170.006,315.091 169.883,312.400 170.364 M215.171 269.454 C 216.327 270.924,216.479 298.008,215.338 299.269 C 214.282 300.436,185.440 300.396,184.814 299.226 C 183.928 297.571,184.281 270.119,185.200 269.200 C 185.970 268.430,186.533 268.400,200.171 268.400 L 214.342 268.400 215.171 269.454 " stroke="none" fill="#34363b" fill-rule="evenodd"></path></g></svg>